<svg width="40" height="40" version="1.1" viewBox="0 0 40 40" xmlns="http://www.w3.org/2000/svg">
 <title>file_type_verilog</title>
 <g transform="matrix(1.3793 0 0 1.3793 -2.0689 -2.0675)">
  <path d="m29.007 17.4h0.037a1.449 1.449 0 0 0 0.938-0.316 1.473 1.473 0 0 0 0.519-1.031v-0.153a1.413 1.413 0 0 0-1.376-1.3h-9e-3 -2.062-1.554v-2.644h3.547a1.411 1.411 0 0 0 1.453-1.356v-0.122a1.412 1.412 0 0 0-0.646-1.1 1.455 1.455 0 0 0-0.835-0.225h-3.563a2.96 2.96 0 0 0-0.278-1.034 2.909 2.909 0 0 0-1.7-1.461 2.684 2.684 0 0 0-0.629-0.13v-1.581-2.063a1.414 1.414 0 0 0-1.368-1.384h-0.116a1.4 1.4 0 0 0-1.319 1.388q0 1.154 0 2.306v1.306h-2.646v-1.519-2.087a1.41 1.41 0 0 0-1.347-1.394h-0.153a1.408 1.408 0 0 0-1.3 1.383v2.064 1.561q-1.319 0-2.639 0v-1.62-1.989a1.366 1.366 0 0 0-0.4-0.975 1.4 1.4 0 0 0-0.984-0.424h-0.077a1.41 1.41 0 0 0-1.341 1.381v2.049 1.6a2.933 2.933 0 0 0-2.466 1.9 2.878 2.878 0 0 0-0.161 0.726h-1.575-2.073-8e-3a1.413 1.413 0 0 0-1.376 1.344v0.095a1.417 1.417 0 0 0 0.575 1.091 1.463 1.463 0 0 0 0.887 0.273h3.539v2.641h-1.553-2.057a1.428 1.428 0 0 0-1.391 1.313v0.187a1.4 1.4 0 0 0 1.386 1.3h2.135 1.479v2.65h-0.292c-0.613-7e-3 -1.226 0-1.838 0h-1.283a1.633 1.633 0 0 0-0.918 0.211 1.437 1.437 0 0 0-0.669 1.139v0.1a1.417 1.417 0 0 0 1.375 1.337h5e-3q0.645 0 1.29 0h2.376a2.832 2.832 0 0 0 1.978 2.5 2.712 2.712 0 0 0 0.631 0.128v1.62 2.025a1.4008 1.4008 0 1 0 2.8-0.092v-3.527h2.645v3.516a1.414 1.414 0 0 0 1.347 1.493h0.153a1.411 1.411 0 0 0 1.3-1.385q6e-3 -1.066 0-2.131v-1.484h2.644v3.6a1.423 1.423 0 0 0 1.356 1.4h0.119a1.408 1.408 0 0 0 1.16-0.741 1.643 1.643 0 0 0 0.167-0.833v-3.452a2.671 2.671 0 0 0 0.62-0.128 2.928 2.928 0 0 0 1.886-1.888 2.834 2.834 0 0 0 0.123-0.613h1.581 2.057 8e-3a1.422 1.422 0 0 0 1.379-1.364v-0.118a1.409 1.409 0 0 0-1.382-1.318h-2.154-1.464v-2.645z" style="fill:#c5c5c5;opacity:.3"/>
  <path d="m10.515 2h0.056a0.91 0.91 0 0 1 0.886 0.893c6e-3 1.108 0 2.216 0 3.324h-1.8v-3.333a0.907 0.907 0 0 1 0.858-0.884z" style="fill:#1a348f"/>
  <path d="m15.937 2h0.116a0.912 0.912 0 0 1 0.846 0.889c6e-3 1.109 0 2.219 0 3.329h-1.799v-3.33a0.911 0.911 0 0 1 0.837-0.888z" style="fill:#1a348f"/>
  <path d="m21.392 2h0.089a0.907 0.907 0 0 1 0.859 0.881c7e-3 1.112 0 2.225 0 3.337h-1.8v-3.326a0.912 0.912 0 0 1 0.852-0.892z" style="fill:#1a348f"/>
  <path d="m2 10.518a0.908 0.908 0 0 1 0.882-0.859c1.112-7e-3 2.223 0 3.334 0q0 0.9 0 1.8h-3.237a0.983 0.983 0 0 1-0.6-0.173 0.924 0.924 0 0 1-0.379-0.715z" style="fill:#1a348f"/>
  <path d="m25.786 9.655h3.233a1 1 0 0 1 0.561 0.143 0.924 0.924 0 0 1 0.42 0.716v0.058a0.933 0.933 0 0 1-0.3 0.651 0.957 0.957 0 0 1-0.677 0.234h-3.237q0-0.901 0-1.802z" style="fill:#1a348f"/>
  <path d="m2 15.944a0.913 0.913 0 0 1 0.888-0.842c1.109-7e-3 2.219 0 3.328 0q0 0.9 0 1.8h-3.326a0.915 0.915 0 0 1-0.89-0.839z" style="fill:#1a348f"/>
  <path d="m25.786 15.1h3.326a0.914 0.914 0 0 1 0.889 0.835v0.117a0.946 0.946 0 0 1-0.331 0.641 0.973 0.973 0 0 1-0.651 0.207h-3.233q-1e-3 -0.9 0-1.8z" style="fill:#1a348f"/>
  <path d="m2.433 20.678a1.121 1.121 0 0 1 0.643-0.136c1.043 6e-3 2.086-6e-3 3.129 6e-3 0.028 0.6 0 1.2 0.012 1.8h-3.331a0.911 0.911 0 0 1-0.886-0.865v-0.083a0.925 0.925 0 0 1 0.433-0.722z" style="fill:#1a348f"/>
  <path d="m25.786 20.543h3.324a0.914 0.914 0 0 1 0.89 0.847v0.09a0.911 0.911 0 0 1-0.888 0.859c-1.109 7e-3 -2.218 0-3.326 0 0-0.596-1e-3 -1.196 0-1.796z" style="fill:#1a348f"/>
  <path d="m9.656 25.781h1.8v3.243a0.957 0.957 0 0 1-0.235 0.677 0.931 0.931 0 0 1-0.653 0.3h-0.052a0.907 0.907 0 0 1-0.86-0.882c-5e-3 -1.113 2e-3 -2.225 0-3.338z" style="fill:#1a348f"/>
  <path d="m15.1 25.781h1.8v3.33a0.914 0.914 0 0 1-0.836 0.889h-0.116a0.94 0.94 0 0 1-0.619-0.306 0.962 0.962 0 0 1-0.228-0.673q-1e-3 -1.621-1e-3 -3.24z" style="fill:#1a348f"/>
  <path d="m20.547 29.106v-3.325h1.8v3.144a1.178 1.178 0 0 1-0.105 0.59 0.92 0.92 0 0 1-0.756 0.484h-0.086a0.911 0.911 0 0 1-0.853-0.893z" style="fill:#1a348f"/>
  <path d="m24.732 8.349a2.429 2.429 0 0 0-1.422-1.218 3.245 3.245 0 0 0-1.056-0.131c-4.3 8e-3 -8.6-0.011-12.905 0.01a2.436 2.436 0 0 0-2.192 1.596 3.611 3.611 0 0 0-0.157 1.328q0 6.25 0 12.5a2.673 2.673 0 0 0 0.268 1.219 2.431 2.431 0 0 0 1.42 1.217 3.756 3.756 0 0 0 1.239 0.13h12.143a3.762 3.762 0 0 0 1.243-0.127 2.429 2.429 0 0 0 1.562-1.573 3.8 3.8 0 0 0 0.125-1.229q0-6.25 0-12.5a2.686 2.686 0 0 0-0.268-1.222z" style="fill:#1a348f"/>
  <path d="m7.5 8.307 0.084-0.2q0.968 0 1.935 0.024h0.394q0.179 0 0.394-0.012 0.776-0.036 2.807-0.036 0.406 0 0.788 6e-3t0.741 0.018a0.234 0.234 0 0 1 0.108 0.108l-0.024 0.191q-0.072 0.119-0.358 0.119h-0.1a10.3 10.3 0 0 0-1.1 0.054 2.179 2.179 0 0 0-1 0.245 0.432 0.432 0 0 0-0.155 0.346 4.05 4.05 0 0 0 0.394 1.4l1.818 4.217 0.634 1.4q0.921 2.222 1.819 4.539 0.1 0.251 0.179 0.454l0.8-1.959q0.62-1.481 1.252-3.154l0.823-2.246q0.024-0.072 0.131-0.478a17.026 17.026 0 0 0 1.157-4 0.561 0.561 0 0 0-0.161-0.364 1.165 1.165 0 0 0-0.52-0.3 7.723 7.723 0 0 0-0.932-0.143l-0.884-0.108a0.337 0.337 0 0 1-0.108-0.2l0.036-0.1 3.87-0.036h1.278a3.1 3.1 0 0 1 0.885 0.084l0.012 0.1a0.641 0.641 0 0 1-0.072 0.251 2.449 2.449 0 0 1-0.526 0.119 3.6 3.6 0 0 0-1.244 0.281 1.815 1.815 0 0 0-0.5 0.687l-3.134 7.765q-1.466 3.5-2.086 5.423l-0.345 1.039a0.531 0.531 0 0 1-0.263 0.1 1.383 1.383 0 0 1-0.3-0.036q-1.422-3.676-2.318-5.681l-3.654-8.304a3.247 3.247 0 0 0-0.591-0.89 5.463 5.463 0 0 0-1.379-0.424 4.347 4.347 0 0 1-0.466-0.119 0.326 0.326 0 0 1-0.119-0.18z" style="fill:#c5c2ff"/>
 </g>
</svg>
